<svg width="354" height="80" viewBox="0 0 354 80" fill="none" xmlns="http://www.w3.org/2000/svg">
<path d="M176.3 20C162.5 20 152.55 29 152.55 42.5C152.55 56 163.75 65 177.55 65C185.888 65 193.238 61.7 197.788 56.1375L188.225 50.6125C185.7 53.375 181.863 54.9875 177.55 54.9875C171.563 54.9875 166.475 51.8625 164.588 46.8625H199.613C199.888 45.4625 200.05 44.0125 200.05 42.4875C200.05 29 190.1 20 176.3 20ZM164.475 38.125C166.038 33.1375 170.313 30 176.288 30C182.275 30 186.55 33.1375 188.1 38.125H164.475ZM310.9 20C297.1 20 287.15 29 287.15 42.5C287.15 56 298.35 65 312.15 65C320.488 65 327.838 61.7 332.388 56.1375L322.825 50.6125C320.3 53.375 316.463 54.9875 312.15 54.9875C306.163 54.9875 301.075 51.8625 299.188 46.8625H334.213C334.488 45.4625 334.65 44.0125 334.65 42.4875C334.65 29 324.7 20 310.9 20ZM299.088 38.125C300.65 33.1375 304.925 30 310.9 30C316.888 30 321.163 33.1375 322.713 38.125H299.088ZM250.3 42.5C250.3 50 255.2 55 262.8 55C267.95 55 271.813 52.6625 273.8 48.85L283.4 54.3875C279.425 61.0125 271.975 65 262.8 65C248.988 65 239.05 56 239.05 42.5C239.05 29 249 20 262.8 20C271.975 20 279.413 23.9875 283.4 30.6125L273.8 36.15C271.813 32.3375 267.95 30 262.8 30C255.213 30 250.3 35 250.3 42.5ZM353.4 6.25V63.75H342.15V6.25H353.4ZM46.1875 0L92.375 80H0L46.1875 0ZM161.663 6.25L127.025 66.25L92.3875 6.25H105.375L127.025 43.75L148.675 6.25H161.663ZM235.3 21.25V33.3625C234.05 33 232.725 32.75 231.3 32.75C224.038 32.75 218.8 37.75 218.8 45.25V63.75H207.55V21.25H218.8V32.75C218.8 26.4 226.188 21.25 235.3 21.25Z" fill="white"/>
</svg>
